<?xml version="1.0" encoding="utf-8"?>
<!-- Generator: Adobe Illustrator 19.2.1, SVG Export Plug-In . SVG Version: 6.00 Build 0)  -->
<svg version="1.1" id="Слой_1" xmlns="http://www.w3.org/2000/svg" xmlns:xlink="http://www.w3.org/1999/xlink" x="0px" y="0px"
	 width="26px" height="23px" viewBox="0 0 26 23" style="enable-background:new 0 0 26 23;" xml:space="preserve">
<style type="text/css">
	.st0{fill:#21C3DB;}
</style>
<path class="st0" d="M21.8,3.7c-2.4-2.1-5.5-3.2-8.8-3.2c-3.3,0-6.5,1.1-8.8,3.2c-2.4,2.1-3.7,4.9-3.7,7.8c0,2.4,0.9,4.8,2.5,6.7
	c-0.3,0.8-0.8,1.4-1.5,1.8c-0.3,0.2-0.5,0.6-0.4,1c0.1,0.4,0.4,0.7,0.8,0.7c0.4,0.1,0.8,0.1,1.2,0.1c1.3,0,2.4-0.3,3.4-0.8
	c1.9,1,4.2,1.6,6.5,1.6c3.3,0,6.5-1.1,8.8-3.2c2.4-2.1,3.7-4.9,3.7-7.8C25.5,8.5,24.2,5.8,21.8,3.7L21.8,3.7z"/>
<path class="st0" d="M13,21.3c-2.2,0-4.3-0.6-6.2-1.6c-0.1-0.1-0.2-0.1-0.3-0.1c-0.1,0-0.2,0-0.3,0.1c-0.9,0.5-1.9,0.8-3.1,0.8
	c-0.1,0-0.2,0-0.3,0c0.7-0.6,1.2-1.3,1.5-2.3c0.1-0.2,0-0.5-0.1-0.6c-1.6-1.8-2.5-3.9-2.5-6.1c0-5.4,5.1-9.8,11.3-9.8
	c6.2,0,11.3,4.4,11.3,9.8C24.3,16.9,19.2,21.3,13,21.3L13,21.3z"/>
<path class="st0" d="M13,21.3"/>
</svg>
