<?xml version="1.0" encoding="utf-8"?>
<!-- Generator: Adobe Illustrator 19.2.1, SVG Export Plug-In . SVG Version: 6.00 Build 0)  -->
<svg version="1.1" id="Слой_1" xmlns="http://www.w3.org/2000/svg" xmlns:xlink="http://www.w3.org/1999/xlink" x="0px" y="0px"
	 width="42.5px" height="59.5px" viewBox="0 0 42.5 59.5" style="enable-background:new 0 0 42.5 59.5;" xml:space="preserve">
<style type="text/css">
	.st0{fill:#FFFFFF;}
</style>
<g>
	<path class="st0" d="M5,55.5c0.1,1.5,1.3,2.8,2.9,2.8h26.8c1.5,0,2.8-1.2,2.9-2.8l1.9-40.4H3.1L5,55.5z M27.3,25.2
		c0-0.6,0.5-1.2,1.2-1.2h1.9c0.6,0,1.2,0.5,1.2,1.2v23.1c0,0.6-0.5,1.2-1.2,1.2h-1.9c-0.6,0-1.2-0.5-1.2-1.2V25.2z M19.2,25.2
		c0-0.6,0.5-1.2,1.2-1.2h1.9c0.6,0,1.2,0.5,1.2,1.2v23.1c0,0.6-0.5,1.2-1.2,1.2h-1.9c-0.6,0-1.2-0.5-1.2-1.2V25.2z M11,25.2
		c0-0.6,0.5-1.2,1.2-1.2H14c0.6,0,1.2,0.5,1.2,1.2v23.1c0,0.6-0.5,1.2-1.2,1.2h-1.9c-0.6,0-1.2-0.5-1.2-1.2V25.2z M11,25.2"/>
	<path class="st0" d="M40.7,4.2H28.4V1.8c0-0.3-0.3-0.6-0.6-0.6h-13c-0.3,0-0.6,0.3-0.6,0.6v2.3H1.8C0.8,4.2,0,5,0,6v5.7h42.5V6
		C42.5,5,41.7,4.2,40.7,4.2L40.7,4.2z M40.7,4.2"/>
</g>
</svg>
