<?xml version="1.0" encoding="utf-8"?>
<!-- Generator: Adobe Illustrator 19.2.1, SVG Export Plug-In . SVG Version: 6.00 Build 0)  -->
<svg version="1.1" id="Слой_1" xmlns="http://www.w3.org/2000/svg" xmlns:xlink="http://www.w3.org/1999/xlink" x="0px" y="0px"
	 width="79.4px" height="45.4px" viewBox="0 0 79.4 45.4" style="enable-background:new 0 0 79.4 45.4;" xml:space="preserve">
<style type="text/css">
	.st0{fill:#FFFFFF;}
</style>
<path class="st0" d="M79.4,19.4c0-10.6-17.1-18.6-39.7-18.6C17.1,0.8,0,8.8,0,19.4c0,1.3,1.1,2.4,2.4,2.4c1.3,0,2.4-1.1,2.4-2.4
	c0-7.3,16.3-13.8,34.8-13.8c18.6,0,34.9,6.4,34.9,13.8c0,6.9-14.4,13-31.5,13.7l2.4-2.3c0.9-0.9,0.9-2.5,0-3.4
	c-0.9-0.9-2.5-0.9-3.4,0l-8.3,8.3l8.3,8.3c0.5,0.5,1.1,0.7,1.7,0.7c0.6,0,1.2-0.3,1.7-0.7c0.5-0.5,0.7-1.1,0.7-1.7s-0.3-1.3-0.7-1.7
	L42.9,38C63.9,37.2,79.4,29.5,79.4,19.4z"/>
</svg>
