<?xml version="1.0" encoding="utf-8"?>
<!-- Generator: Adobe Illustrator 19.2.1, SVG Export Plug-In . SVG Version: 6.00 Build 0)  -->
<svg version="1.1" id="Слой_1" xmlns="http://www.w3.org/2000/svg" xmlns:xlink="http://www.w3.org/1999/xlink" x="0px" y="0px"
	 width="22px" height="22px" viewBox="0 0 22 22" style="enable-background:new 0 0 22 22;" xml:space="preserve">
<style type="text/css">
	.st0{fill:#21C3DB;}
</style>
<path class="st0" d="M20.9,14.9c0.4-0.6,0.7-1.2,0.6-1.8c0-0.7-0.3-1.2-0.6-1.6c0.3-0.7,0.4-1.9-0.6-2.8c-0.7-0.7-1.9-0.9-3.6-0.9
	c-1.2,0.1-2.2,0.3-2.2,0.3h0c-0.2,0-0.5,0.1-0.7,0.1c0-0.3,0-1,0.6-2.6c0.6-1.9,0.6-3.4-0.1-4.4c-0.7-1-1.9-1.1-2.3-1.1
	c-0.3,0-0.7,0.1-0.9,0.4c-0.5,0.6-0.4,1.7-0.4,2.2C10.1,4.3,8.4,8.3,7,9.4c0,0,0,0-0.1,0.1C6.5,9.9,6.2,10.3,6,10.8
	c-0.3-0.1-0.6-0.2-0.9-0.2H2.4c-1,0-1.9,0.8-1.9,1.9v7.3c0,1,0.8,1.9,1.9,1.9h2.8c0.4,0,0.8-0.1,1.1-0.3l1.1,0.1
	c0.2,0,3.1,0.4,6,0.3c0.5,0,1,0.1,1.5,0.1c0.8,0,1.5-0.1,2.1-0.2c1.4-0.3,2.3-0.9,2.8-1.7c0.4-0.7,0.4-1.3,0.3-1.7
	c0.9-0.8,1.1-1.7,1-2.3C21,15.4,21,15.1,20.9,14.9L20.9,14.9z"/>
<path class="st0" d="M2.4,20.4c-0.4,0-0.7-0.3-0.7-0.7v-7.3c0-0.4,0.3-0.7,0.7-0.7h2.8c0.4,0,0.7,0.3,0.7,0.7v7.3
	c0,0.4-0.3,0.7-0.7,0.7L2.4,20.4L2.4,20.4z"/>
<path class="st0" d="M19.7,14.4c-0.2,0.2-0.2,0.5-0.1,0.7c0,0,0.2,0.3,0.2,0.8c0,0.6-0.3,1.1-0.8,1.6c-0.2,0.2-0.3,0.4-0.2,0.7
	c0,0,0.2,0.6-0.1,1.2c-0.3,0.5-1,0.9-2,1.1c-0.8,0.2-1.9,0.2-3.3,0.1h-0.1c-2.9,0.1-5.8-0.3-5.9-0.3h0L7,20.1c0-0.1,0-0.3,0-0.4
	v-7.3c0-0.2,0-0.4-0.1-0.6c0.1-0.3,0.3-1,0.8-1.5c2-1.6,4-7,4.1-7.3c0-0.1,0-0.2,0-0.3c-0.1-0.5,0-1.1,0.1-1.3
	c0.2,0,0.9,0.1,1.3,0.6c0.5,0.6,0.4,1.8-0.1,3.3c-0.8,2.3-0.8,3.5-0.2,4c0.3,0.3,0.7,0.3,1,0.2c0.3-0.1,0.5-0.1,0.8-0.2
	c0,0,0,0,0.1,0c1.4-0.3,3.9-0.5,4.7,0.3c0.7,0.7,0.2,1.6,0.2,1.6c-0.2,0.3-0.1,0.6,0.1,0.8c0,0,0.5,0.5,0.5,1.1
	C20.3,13.5,20.1,13.9,19.7,14.4L19.7,14.4z"/>
<path class="st0" d="M19.7,14.4"/>
</svg>
