<?xml version="1.0" encoding="utf-8"?>
<!-- Generator: Adobe Illustrator 19.2.1, SVG Export Plug-In . SVG Version: 6.00 Build 0)  -->
<svg version="1.1" id="Layer_1" xmlns="http://www.w3.org/2000/svg" xmlns:xlink="http://www.w3.org/1999/xlink" x="0px" y="0px"
	 width="37px" height="37px" viewBox="0 0 37 37" style="enable-background:new 0 0 37 37;" xml:space="preserve">
<style type="text/css">
	.st0{fill-rule:evenodd;clip-rule:evenodd;fill:none;stroke:#21C3DB;stroke-miterlimit:10;}
	.st1{fill:#FFFFFF;}
</style>
<circle class="st0" cx="18.5" cy="18.5" r="18"/>
<path class="st1" d="M13.6,11.5c0,1.1-0.8,1.9-2.1,1.9c-1.2,0-2-0.9-2-1.9c0-1.1,0.8-1.9,2.1-1.9C12.8,9.6,13.5,10.5,13.6,11.5z
	 M9.6,27.4V15h3.8v12.4H9.6z M15.8,18.9c0-1.6-0.1-2.8-0.1-4H19l0.2,1.7h0.1c0.5-0.8,1.8-2,3.8-2c2.5,0,4.4,1.7,4.4,5.3v7.3h-3.9
	v-6.9c0-1.6-0.6-2.7-1.9-2.7c-1.1,0-1.7,0.7-2,1.4c-0.1,0.3-0.1,0.6-0.1,1v7.1h-3.8V18.9z"/>
</svg>
