<?xml version="1.0" encoding="utf-8"?>
<svg xmlns="http://www.w3.org/2000/svg"
	xmlns:xlink="http://www.w3.org/1999/xlink"
	width="15px" height="15px" viewBox="0 0 15 15">
<g><path fillRule="evenodd" d="M 7.5-0C 8.33-0 9 0.67 9 1.5 9 1.5 9 13.5 9 13.5 9 14.33 8.33 15 7.5 15 6.67 15 6 14.33 6 13.5 6 13.5 6 1.5 6 1.5 6 0.67 6.67-0 7.5-0Z" fill="rgb(255,255,255)"/><path fillRule="evenodd" d="M 1.5 6C 1.5 6 13.5 6 13.5 6 14.33 6 15 6.67 15 7.5 15 8.33 14.33 9 13.5 9 13.5 9 1.5 9 1.5 9 0.67 9-0 8.33-0 7.5-0 6.67 0.67 6 1.5 6Z" fill="rgb(255,255,255)"/></g></svg>