<?xml version="1.0" encoding="utf-8"?>
<!-- Generator: Adobe Illustrator 19.2.1, SVG Export Plug-In . SVG Version: 6.00 Build 0)  -->
<svg version="1.1" id="Слой_1" xmlns="http://www.w3.org/2000/svg" xmlns:xlink="http://www.w3.org/1999/xlink" x="0px" y="0px"
	 width="18px" height="12px" viewBox="0 0 18 12" style="enable-background:new 0 0 18 12;" xml:space="preserve">
<style type="text/css">
	.st0{fill:#A2A2A2;}
	.st1{fill:none;}
</style>
<path class="st0" d="M9,0.6c-3.4,0-6.6,1.9-8.9,4.9C0,5.8,0,6.2,0.1,6.4c2.3,3.1,5.4,4.9,8.9,4.9c3.4,0,6.6-1.9,8.9-4.9
	c0.2-0.3,0.2-0.6,0-0.9C15.6,2.5,12.4,0.6,9,0.6L9,0.6z M9.2,9.8C7,9.9,5.1,8,5.2,5.8c0.1-1.9,1.6-3.4,3.5-3.5c2.3-0.1,4.2,1.7,4,4
	C12.7,8.1,11.1,9.7,9.2,9.8L9.2,9.8z M9.1,8C7.9,8.1,6.9,7.1,7,5.9C7,4.9,7.9,4,8.9,4c1.2-0.1,2.2,0.9,2.2,2.2C11,7.1,10.1,8,9.1,8
	L9.1,8z M9.1,8"/>
<rect x="-187" y="-111" class="st1" width="391.9" height="234.7"/>
</svg>
