<?xml version="1.0" encoding="utf-8"?>
<!-- Generator: Adobe Illustrator 19.2.1, SVG Export Plug-In . SVG Version: 6.00 Build 0)  -->
<svg version="1.1" id="Слой_1" xmlns="http://www.w3.org/2000/svg" xmlns:xlink="http://www.w3.org/1999/xlink" x="0px" y="0px"
	 width="21px" height="21px" viewBox="0 0 21 21" style="enable-background:new 0 0 21 21;" xml:space="preserve">
<style type="text/css">
	.st0{fill:#FFFFFF;}
</style>
<path class="st0" d="M20.3,19.8l-5.5-5.7c1.5-1.5,2.3-3.5,2.3-5.7c0-4.6-3.7-8.3-8.3-8.3S0.5,3.8,0.5,8.4s3.7,8.3,8.3,8.3
	c1.8,0,3.6-0.6,5.1-1.8l5.5,5.8c0.1,0.1,0.3,0.2,0.4,0.2c0.2,0,0.3-0.1,0.4-0.2C20.6,20.5,20.6,20.1,20.3,19.8z M15.8,8.4
	c0,3.9-3.2,7-7,7s-7-3.2-7-7s3.2-7,7-7S15.8,4.5,15.8,8.4z"/>
</svg>
