<?xml version="1.0" encoding="utf-8"?>
<!-- Generator: Adobe Illustrator 19.2.1, SVG Export Plug-In . SVG Version: 6.00 Build 0)  -->
<svg version="1.1" id="Режим_изоляции"
	 xmlns="http://www.w3.org/2000/svg" xmlns:xlink="http://www.w3.org/1999/xlink" x="0px" y="0px" width="69px" height="69px"
	 viewBox="0 0 69 69" style="enable-background:new 0 0 69 69;" xml:space="preserve">
<style type="text/css">
	.st0{fill:#21C3DB;}
</style>
<path class="st0" d="M34.6,0.5c4.7,0,9.2,0.9,13.3,2.7c4.1,1.8,7.7,4.2,10.8,7.3c3.1,3.1,5.5,6.7,7.3,10.8c1.8,4.1,2.7,8.5,2.7,13.3
	v34.1H34.6c-4.6,0-9-0.9-13.2-2.7c-4.1-1.8-7.8-4.2-10.9-7.3c-3.1-3.1-5.6-6.8-7.3-10.9c-1.8-4.1-2.7-8.5-2.7-13.2
	c0-4.7,0.9-9.2,2.7-13.3c1.8-4.1,4.2-7.7,7.3-10.8c3.1-3.1,6.8-5.5,10.9-7.3C25.5,1.4,29.9,0.5,34.6,0.5z M55,55V34.4
	c0-2.8-0.5-5.5-1.6-8C52.4,24,50.9,21.8,49,20c-1.9-1.9-4-3.3-6.5-4.4c-2.5-1.1-5.1-1.6-8-1.6c-2.8,0-5.5,0.5-8,1.6
	C24,16.6,21.8,18.1,20,20c-1.9,1.9-3.3,4-4.4,6.5c-1.1,2.5-1.6,5.1-1.6,8c0,2.8,0.5,5.5,1.6,8c1.1,2.5,2.5,4.7,4.4,6.6
	c1.9,1.9,4.1,3.3,6.6,4.4c2.5,1.1,5.2,1.6,8,1.6H55z"/>
</svg>
