<?xml version="1.0" encoding="utf-8"?>
<!-- Generator: Adobe Illustrator 19.2.1, SVG Export Plug-In . SVG Version: 6.00 Build 0)  -->
<svg version="1.1" id="Layer_1" xmlns="http://www.w3.org/2000/svg" xmlns:xlink="http://www.w3.org/1999/xlink" x="0px" y="0px"
	 width="37px" height="37px" viewBox="0 0 37 37" style="enable-background:new 0 0 37 37;" xml:space="preserve">
<style type="text/css">
	.st0{fill-rule:evenodd;clip-rule:evenodd;fill:none;stroke:#21C3DB;stroke-miterlimit:10;}
	.st1{fill:#170A31;}
</style>
<circle class="st0" cx="18.5" cy="18.5" r="18"/>
<path class="st1" d="M27.5,12.9c-0.7,0.3-1.4,0.5-2.1,0.6c0.8-0.5,1.3-1.2,1.6-2c-0.7,0.4-1.5,0.7-2.3,0.9C24,11.6,23,11.2,22,11.2
	c-2,0-3.7,1.7-3.7,3.7c0,0.3,0,0.6,0.1,0.8c-3.1-0.1-5.8-1.6-7.6-3.9c-0.3,0.6-0.5,1.2-0.5,1.9c0,1.3,0.7,2.4,1.6,3.1
	c-0.6,0-1.2-0.2-1.7-0.5c0,0,0,0,0,0c0,1.8,1.3,3.3,3,3.6c-0.3,0.1-0.6,0.1-1,0.1c-0.2,0-0.5,0-0.7-0.1c0.5,1.5,1.8,2.5,3.4,2.6
	c-1.3,1-2.8,1.6-4.6,1.6c-0.3,0-0.6,0-0.9-0.1c1.6,1.1,3.6,1.7,5.7,1.7c6.8,0,10.5-5.6,10.5-10.5c0-0.2,0-0.3,0-0.5
	C26.4,14.3,27,13.7,27.5,12.9z"/>
</svg>
